<?xml version="1.0" encoding="UTF-8"?>
<svg version="1.1" xmlns="http://www.w3.org/2000/svg" width="512" height="512">
<path d="M0 0 C1.35882268 -0.00551503 1.35882268 -0.00551503 2.74509633 -0.01114148 C5.78117064 -0.02215644 8.81721071 -0.0260184 11.853302 -0.02983093 C14.02984729 -0.03609706 16.20639152 -0.042744 18.38293457 -0.04974365 C25.52946226 -0.07076253 32.67599012 -0.08114161 39.82254028 -0.09111023 C42.28305192 -0.09515811 44.74356345 -0.09927504 47.20407486 -0.10346031 C58.76004641 -0.12250443 70.31601159 -0.13673908 81.87199581 -0.14507228 C95.21452136 -0.15485276 108.55684759 -0.18119675 121.89931476 -0.22157317 C132.2119676 -0.25171133 142.52457291 -0.26653884 152.83726895 -0.26985329 C158.99727865 -0.27220571 165.15711133 -0.28119181 171.31707382 -0.30631447 C177.11028421 -0.32956084 182.90320056 -0.33384212 188.69644547 -0.32355309 C190.822095 -0.32305684 192.94775885 -0.32940332 195.07336426 -0.34310913 C197.97650902 -0.36078085 200.87859304 -0.35374494 203.78173828 -0.34057617 C204.62172831 -0.35154542 205.46171835 -0.36251466 206.32716262 -0.37381631 C213.86821413 -0.29129703 218.70550576 2.53066269 224.13894653 7.79170227 C224.84728638 8.46910461 225.55562622 9.14650696 226.28543091 9.84443665 C227.35954224 10.89147766 227.35954224 10.89147766 228.45535278 11.95967102 C229.89020308 13.34258104 231.32639493 14.72410051 232.76394653 16.10420227 C233.47083618 16.78305481 234.17772583 17.46190735 234.90603638 18.16133118 C237.56490665 20.66159138 240.30946209 23.05086492 243.06887817 25.43891907 C246.29157084 28.26356902 249.39977377 31.20815162 252.51785278 34.14717102 C256.91814222 38.27561124 261.33412959 42.36026523 265.91238403 46.29170227 C269.52284683 49.47346447 273.0285721 52.77111277 276.53982544 56.0617218 C278.95214143 58.30852228 281.26823923 60.31409532 284.01785278 62.14717102 C284.76065491 61.39992767 285.50345703 60.65268433 286.26876831 59.88279724 C293.26716557 52.84386927 300.2708282 45.81021854 307.27968979 38.78170967 C310.88290428 35.16805481 314.48423335 31.55256174 318.08132935 27.93281555 C321.55231611 24.4401097 325.02815535 20.95230174 328.5074234 17.46784592 C329.8344472 16.13712471 331.15970844 14.80464344 332.48317719 13.47038651 C334.33613909 11.60292235 336.19525002 9.74179535 338.05593872 7.8820343 C338.60260193 7.32818054 339.14926514 6.77432678 339.7124939 6.20368958 C344.38796105 1.55340994 347.30865241 -0.14406053 353.89285278 -0.22782898 C359.10052185 -0.12646316 362.12365912 0.44768704 366.01785278 4.14717102 C370.4320112 8.79365356 370.48543539 13.03510168 370.54910278 19.14717102 C369.338206 25.98517641 363.74939028 30.70100066 359.0087738 35.40793228 C357.94503802 36.47602839 357.94503802 36.47602839 356.85981262 37.5657022 C354.47621597 39.95661251 352.08554467 42.34032021 349.69485474 44.72413635 C347.96966259 46.45163237 346.24490676 48.17956423 344.52055073 49.90789485 C340.76733268 53.66773123 337.01101793 57.42443298 333.25194168 61.17840958 C327.6621947 66.76059392 322.07817312 72.3484794 316.49526522 77.93750266 C306.52477478 87.91852765 296.54856498 97.89382046 286.56991896 107.86669109 C277.83876308 116.59281829 269.10946541 125.320799 260.38201904 134.05063629 C259.5140628 134.91882169 259.5140628 134.91882169 258.62857208 135.80454619 C256.27978974 138.1539512 253.93101446 140.50336327 251.58225082 142.85278698 C229.54575777 164.89539914 207.5034342 186.93217262 185.45850082 208.96634319 C165.86368151 228.55166865 146.27404257 248.14216147 126.68875122 267.73701477 C104.69215575 289.74431351 82.69234036 311.74838513 60.68730068 333.74724078 C58.34275626 336.09114375 55.99821972 338.43505461 53.65368652 340.77896881 C53.07638532 341.35611186 52.49908411 341.93325492 51.90428893 342.52788715 C43.17761589 351.25228302 34.45341748 359.9791483 25.73040771 368.70720673 C15.81582836 378.62749572 5.89770063 388.54422153 -4.02516723 398.45622018 C-9.58197276 404.00714004 -15.13599511 409.56081101 -20.6860927 415.118438 C-24.82303193 419.26037141 -28.9651495 423.39709793 -33.10936034 427.53175649 C-34.7907255 429.21087631 -36.47038373 430.89170731 -38.14821279 432.57436052 C-40.41860746 434.85078478 -42.69499454 437.1210386 -44.97306824 439.38977432 C-45.63203319 440.0534216 -46.29099814 440.71706889 -46.96993172 441.40082669 C-47.57706438 442.00295232 -48.18419705 442.60507794 -48.80972767 443.2254498 C-49.32980799 443.74539461 -49.84988832 444.26533942 -50.38572866 444.80104013 C-54.93974398 448.6410736 -59.30896942 448.57177059 -65.06808472 448.45967102 C-70.36954823 447.89114946 -72.82187217 445.36851318 -76.35714722 441.64717102 C-78.70540448 436.58938616 -78.95312029 431.63031309 -77.98214722 426.14717102 C-75.74931748 421.92958804 -73.3113823 419.5053274 -69.51209927 416.6224575 C-61.45570898 410.2780566 -54.99167447 404.22624467 -53.24063301 393.76770401 C-52.34075159 385.56093528 -52.56037786 377.27424712 -52.75099361 369.03518748 C-52.82980099 364.70664341 -52.7969769 360.37865968 -52.77835083 356.04963684 C-52.76089685 348.56715045 -52.81186288 341.08772353 -52.91034126 333.60589981 C-53.05243256 322.77513914 -53.08426485 311.94616404 -53.08958732 301.11457352 C-53.10080643 283.51845612 -53.19359062 265.92378965 -53.34127808 248.32832336 C-53.48414017 231.28020535 -53.59851043 214.23238009 -53.66744995 197.18379211 C-53.67171631 196.13276368 -53.67598268 195.08173524 -53.68037833 193.99885745 C-53.72624787 182.51506711 -53.76491882 171.03125871 -53.79975033 159.54743004 C-53.80910675 156.49819807 -53.81848176 153.44896616 -53.82788379 150.39973433 C-53.83402049 148.38924071 -53.84003208 146.3787467 -53.84591662 144.36825232 C-53.88090699 132.56867795 -53.93748578 120.76963934 -54.0330013 108.9703918 C-54.09288639 101.57214072 -54.14070408 94.17388561 -54.17923219 86.7754925 C-54.20663077 81.69789455 -54.25074212 76.6208372 -54.30836818 71.54349736 C-54.3391671 68.44868908 -54.35290255 65.3539765 -54.36185228 62.25903516 C-54.3692882 60.85219144 -54.38356106 59.4453618 -54.40573794 58.03867324 C-54.67131939 40.66125091 -49.30918449 27.12873183 -37.46652222 14.47138977 C-26.8430417 4.53275627 -14.29589188 -0.00312111 0 0 Z M-18.35714722 42.95967102 C-22.42193131 50.93290135 -22.26557242 59.33359119 -22.22265625 68.1121521 C-22.2243651 69.39799381 -22.22607395 70.68383552 -22.22783458 72.00864214 C-22.23228415 75.55704635 -22.22433756 79.1053287 -22.21427846 82.6537174 C-22.2056116 86.48795068 -22.2085664 90.32217752 -22.21008301 94.15641785 C-22.21112982 100.79265015 -22.20487458 107.428843 -22.19360733 114.06506538 C-22.17732759 123.65982876 -22.17214179 133.25457314 -22.16963135 142.84934884 C-22.16525812 158.41762784 -22.15195914 173.98588584 -22.13302612 189.55415344 C-22.11465767 204.67394404 -22.10050589 219.79372893 -22.0920105 234.91352844 C-22.09148505 235.84609355 -22.0909596 236.77865865 -22.09041823 237.7394833 C-22.08780809 242.41806186 -22.08528069 247.09664046 -22.08279443 251.77521908 C-22.06207354 290.56588443 -22.02685816 329.35652634 -21.98214722 368.14717102 C-16.16984413 363.31806858 -10.82129249 358.12956404 -5.48460388 352.78334045 C-4.53831647 351.83892411 -3.59181384 350.89472336 -2.64511627 349.95071816 C-0.05912817 347.37081693 2.52375899 344.78783102 5.10611379 342.20429373 C7.89701384 339.41318891 10.69077697 336.62495228 13.48414612 333.83631897 C18.94847118 328.38028167 24.41003274 322.92148626 29.8704946 317.46158287 C34.30611485 313.02643825 38.74252492 308.59208523 43.17949104 304.15828705 C55.75737833 291.58919775 68.3331756 279.01802269 80.90628933 266.44415829 C81.92190509 265.4284826 81.92190509 265.4284826 82.95803833 264.39228821 C83.97489082 263.3753744 83.97489082 263.3753744 85.01228578 262.33791688 C96.02025832 251.32953712 107.03322139 240.32616493 118.04843437 229.32503054 C129.35706958 218.03073528 140.66199649 206.73274005 151.96303135 195.43083978 C158.30870834 189.08483021 164.6559298 182.74038303 171.00713921 176.39990997 C176.40893749 171.00718492 181.80730264 165.61105276 187.20115756 160.21038219 C189.95507078 157.45318888 192.71060486 154.6976665 195.47046661 151.94642639 C198.45544871 148.97067409 201.43270665 145.98731516 204.40919495 143.00306702 C205.29155632 142.12584921 206.17391769 141.2486314 207.08301729 140.34483123 C207.87291459 139.55033513 208.66281189 138.75583904 209.47664547 137.9372673 C210.16546084 137.2486693 210.85427622 136.56007129 211.56396478 135.85060668 C213.23425081 134.26688467 213.23425081 134.26688467 213.01785278 132.14717102 C211.86864562 131.12333191 210.6712623 130.15332755 209.45535278 129.20967102 C199.09852817 120.37429144 193.94905764 107.34565547 192.01785278 94.14717102 C191.70210163 89.30163032 191.64677678 84.46288421 191.60379028 79.60810852 C191.585038 78.23233431 191.56546171 76.85657111 191.54510498 75.4808197 C191.49420579 71.89384004 191.45435698 68.30682325 191.41696167 64.71968079 C191.37665421 61.04568115 191.3256852 57.37183024 191.27566528 53.69795227 C191.17940728 46.51446128 191.09484559 39.33089711 191.01785278 32.14717102 C166.40037511 32.10042694 141.7829041 32.06517035 117.16539097 32.04354668 C105.73476743 32.03323907 94.3041715 32.01918854 82.87356567 31.99629211 C72.90934717 31.97634251 62.94514864 31.96345084 52.98091072 31.95899403 C47.70613152 31.95638932 42.43140949 31.95027777 37.15664864 31.93571091 C32.18844325 31.92210223 27.22031843 31.91795504 22.25209618 31.92095566 C20.43206977 31.92040697 18.61204058 31.91644916 16.79203033 31.90876007 C14.2990153 31.89874732 11.8063008 31.90122504 9.3132782 31.90666199 C8.6002136 31.9008363 7.88714899 31.89501062 7.15247637 31.8890084 C-3.59988773 31.95199632 -11.32331099 34.63012812 -18.35714722 42.95967102 Z M224.01785278 54.14717102 C223.94327933 59.41243957 223.8890518 64.67739557 223.85305786 69.94306946 C223.83804095 71.73153545 223.8176212 73.51996505 223.79153442 75.30830383 C223.75483663 77.89010133 223.73805533 80.47140881 223.72488403 83.05342102 C223.70940018 83.84333435 223.69391632 84.63324768 223.67796326 85.44709778 C223.67595206 92.1943641 225.1473969 97.99634629 229.33035278 103.45967102 C232.24184745 106.65445306 232.24184745 106.65445306 238.01785278 109.14717102 C245.27785278 101.88717102 252.53785278 94.62717102 260.01785278 87.14717102 C256.14030275 82.62336265 252.73980397 78.80104454 248.39285278 74.89717102 C247.34572917 73.95343639 246.29886197 73.00941717 245.25222778 72.06513977 C244.7204895 71.58738098 244.18875122 71.10962219 243.64089966 70.61738586 C242.00766179 69.13793965 240.39326371 67.64035821 238.78347778 66.13545227 C238.25705688 65.64528625 237.73063599 65.15512024 237.18826294 64.65010071 C235.72630774 63.28745684 234.26654439 61.92246249 232.80691528 60.55732727 C230.0109725 58.14122545 227.10604169 56.16834183 224.01785278 54.14717102 Z " fill="#000000" transform="translate(109.98214721679688,31.852828979492188)"/>
<path d="M0 0 C3.72525896 3.09266782 6.56295763 6.02360589 7.11628091 11.01799053 C7.11839419 12.28555874 7.11839419 12.28555874 7.12055016 13.5787344 C7.12699905 14.55751566 7.13344794 15.53629693 7.14009225 16.54473823 C7.13544645 18.15399456 7.13544645 18.15399456 7.13070679 19.79576111 C7.1352379 20.93748467 7.13976901 22.07920822 7.14443743 23.25552946 C7.15713654 27.09609354 7.15545747 30.93651681 7.15380859 34.77709961 C7.15870216 37.52504005 7.16653859 40.27297051 7.17416382 43.02090454 C7.19078492 49.72105251 7.19627397 56.4211653 7.19738857 63.12133216 C7.19833906 68.5711689 7.2024494 74.02099403 7.20878983 79.4708271 C7.22640965 94.93119226 7.2356282 110.39152965 7.23412888 125.85190492 C7.23404897 126.68557366 7.23396905 127.5192424 7.23388672 128.37817383 C7.23380496 129.21286454 7.2337232 130.04755525 7.23363896 130.90753961 C7.2328271 144.41682455 7.25193738 157.9259977 7.28016345 171.43525033 C7.30893468 185.31539001 7.32270124 199.19547527 7.3209759 213.07564551 C7.32031319 220.86450864 7.32575252 228.65325478 7.347332 236.44209099 C7.36560025 243.0783196 7.36984553 249.71437827 7.35631315 256.35062122 C7.34981001 259.73262232 7.35176796 263.11403373 7.36701965 266.49604607 C7.38252792 270.17436317 7.37312567 273.85183629 7.35775757 277.53013611 C7.36804469 278.58289716 7.37833182 279.63565822 7.38893068 280.72032112 C7.24545446 296.35475996 0.88607858 309.14677534 -9.65234375 320.41015625 C-18.61756377 328.7974297 -30.65507859 334.84212649 -43.07682705 334.86859608 C-44.05146607 334.87305392 -45.02610509 334.87751176 -46.03027862 334.88210469 C-47.09330532 334.88192033 -48.15633202 334.88173597 -49.25157166 334.88154602 C-50.38683794 334.88522271 -51.52210423 334.8888994 -52.69177252 334.8926875 C-56.50407361 334.90371974 -60.31634745 334.90756736 -64.12866211 334.91137695 C-66.85854831 334.91711074 -69.58843043 334.92427579 -72.3183136 334.93128967 C-80.51357879 334.951025 -88.70884516 334.96111439 -96.90412816 334.97001746 C-100.76411017 334.97440324 -104.62409081 334.97976912 -108.48407173 334.98500633 C-121.31491149 335.00201204 -134.1457504 335.01650785 -146.97659969 335.02375507 C-150.30397988 335.02566492 -153.63136007 335.02758527 -156.95874023 335.02954102 C-157.78572977 335.03002476 -158.61271931 335.0305085 -159.46476913 335.0310069 C-172.87201638 335.03931356 -186.2791746 335.06466412 -199.68638294 335.09712169 C-213.45238307 335.13017632 -227.21833789 335.14820219 -240.98437792 335.15139931 C-248.71320757 335.15356538 -256.44190719 335.16232856 -264.17069817 335.18786049 C-270.75000157 335.2095453 -277.32914334 335.21762873 -283.90847843 335.20789371 C-287.26532477 335.20334303 -290.62156646 335.20745224 -293.97841263 335.22465515 C-297.6175198 335.24226415 -301.25577547 335.23532122 -304.8948822 335.22212219 C-306.48607617 335.23857606 -306.48607617 335.23857606 -308.10941547 335.25536233 C-314.11958276 335.20258897 -317.55532704 334.72995061 -322.13671875 330.734375 C-326.22026691 326.20936217 -327.45301293 322.9437221 -327.3515625 316.7890625 C-326.75637871 311.09694118 -323.28639971 307.36534584 -319.13671875 303.734375 C-316.29621302 302.78753976 -314.55052906 302.60702887 -311.60725975 302.60129642 C-310.67328688 302.59705538 -309.73931401 302.59281433 -308.77703893 302.58844477 C-307.74914239 302.5888309 -306.72124585 302.58921703 -305.66220093 302.58961487 C-304.02629311 302.5843246 -304.02629311 302.5843246 -302.35733664 302.57892746 C-298.68402098 302.56820908 -295.01073123 302.564554 -291.33740234 302.56079102 C-288.71120086 302.55448807 -286.08500046 302.54772256 -283.45880127 302.54052734 C-277.7932405 302.52558218 -272.12768106 302.51404027 -266.46210861 302.50457954 C-258.26079899 302.49070659 -250.05952018 302.469518 -241.85823269 302.44615101 C-228.53977309 302.40821988 -215.2213079 302.37326048 -201.90283203 302.34155273 C-200.70669084 302.338702 -200.70669084 302.338702 -199.48638518 302.33579367 C-188.17884997 302.30898244 -176.87131044 302.28510377 -165.56376632 302.26240867 C-164.768158 302.26081137 -163.97254969 302.25921406 -163.15283203 302.25756836 C-162.35819402 302.25597489 -161.563556 302.25438143 -160.74483804 302.25273968 C-147.48398145 302.22595004 -134.22315756 302.19153993 -120.96233618 302.15091461 C-112.78499901 302.1261685 -104.60769698 302.10782566 -96.43032832 302.097759 C-90.82225523 302.09035421 -85.21422931 302.07580709 -79.60618751 302.05569477 C-76.37270351 302.04433118 -73.13931004 302.0372556 -69.90580368 302.03670311 C-66.39481938 302.03561889 -62.88408067 302.02235528 -59.37313843 302.00611877 C-58.35862622 302.00873563 -57.34411401 302.01135248 -56.298859 302.01404864 C-47.50142903 301.95060028 -39.83424324 301.20122767 -32.86328125 295.5078125 C-25.65884795 288.10778372 -25.9889962 278.45468891 -26.00541687 268.76501465 C-26.00330116 267.6574788 -26.00118544 266.54994296 -25.99900562 265.40884542 C-25.9930124 261.69638181 -25.99400528 257.98395224 -25.99487305 254.27148438 C-25.99184118 251.6104158 -25.98839391 248.94935118 -25.98434448 246.2882843 C-25.97624234 240.55728666 -25.97129148 234.82629345 -25.96805382 229.09529114 C-25.9625503 220.03661227 -25.94564671 210.9779709 -25.92671204 201.91931152 C-25.92035585 198.81870276 -25.91404737 195.7180939 -25.90773487 192.61748505 C-25.90615111 191.84268442 -25.90456735 191.06788379 -25.90293559 190.26960436 C-25.88500923 181.45561783 -25.86877682 172.64162867 -25.85375977 163.82763672 C-25.85238389 163.02214699 -25.85100802 162.21665726 -25.84959046 161.38675874 C-25.82764714 148.32557871 -25.81690031 135.26440837 -25.80938902 122.20321316 C-25.80131957 108.78970351 -25.77803724 95.37627699 -25.74143535 81.96281481 C-25.71940898 73.69079165 -25.70974607 65.41893938 -25.71593568 57.14688838 C-25.71910895 51.47995871 -25.70778909 45.81317512 -25.68504127 40.14629066 C-25.67236828 36.87660211 -25.66838506 33.60730548 -25.67745781 30.33759499 C-25.68630227 26.79264277 -25.67072243 23.24861249 -25.64897156 19.70373535 C-25.65741409 18.67085813 -25.66585663 17.63798091 -25.674555 16.57380438 C-25.60693363 10.62856834 -25.06302691 7.27934497 -21.13671875 2.734375 C-15.23107767 -2.728343 -7.25386165 -4.29662006 0 0 Z " fill="#000000" transform="translate(449.13671875,145.265625)"/>
<path d="M0 0 C0.91797363 -0.00700928 1.83594727 -0.01401855 2.78173828 -0.02124023 C5.79938498 -0.03876627 8.81608492 -0.02721748 11.83374023 -0.01367188 C13.9392871 -0.0163681 16.04483275 -0.02025161 18.15037537 -0.02526855 C22.55593764 -0.03115611 26.96117482 -0.02262353 31.36669922 -0.00390625 C37.00817737 0.01889665 42.64889485 0.00574669 48.29034519 -0.01819611 C52.63557144 -0.03266204 56.98061782 -0.02804463 61.32584953 -0.01768494 C63.40583321 -0.01502059 65.48583333 -0.01827711 67.56579781 -0.02760315 C70.4739918 -0.03778319 73.38095963 -0.02224757 76.2890625 0 C77.57268929 -0.01214539 77.57268929 -0.01214539 78.88224792 -0.02453613 C84.26295212 0.05156713 87.29514669 0.97354051 91.57983398 4.51757812 C95.20817062 8.33687985 95.88983857 11.40036819 96.07983398 16.51757812 C95.88983857 21.63478806 95.20817062 24.6982764 91.57983398 28.51757812 C85.41396953 33.27043198 80.7666202 33.66804793 73.17456055 33.67871094 C72.32851257 33.68367584 71.4824646 33.68864075 70.61077881 33.6937561 C67.81399722 33.70835104 65.01727239 33.71517575 62.22045898 33.72070312 C60.2723592 33.72645735 58.32425943 33.73221505 56.37615967 33.73797607 C52.29072812 33.74847887 48.2053162 33.75432607 44.11987305 33.7578125 C38.89678829 33.76329169 33.67396495 33.78731052 28.45096207 33.81578445 C24.42567193 33.83445251 20.4004442 33.83961868 16.37511444 33.84114838 C14.45027998 33.84416668 12.5254464 33.85216733 10.6006546 33.86533356 C7.90113219 33.88247915 5.20224103 33.88049299 2.50268555 33.87402344 C1.71486694 33.88323822 0.92704834 33.892453 0.11535645 33.90194702 C-5.61498323 33.85914864 -11.59592146 33.13540968 -15.98662949 29.06560135 C-20.2591468 24.04677931 -20.77768339 20.76940533 -20.69360352 14.34570312 C-20.2700511 9.96496096 -19.17697781 7.98126473 -16.42016602 4.51757812 C-10.84382011 0.58765338 -6.7271807 -0.06380198 0 0 Z " fill="#000000" transform="translate(176.420166015625,155.482421875)"/>
<path d="M0 0 C1.18128983 -0.00744736 1.18128983 -0.00744736 2.38644409 -0.01504517 C4.98843261 -0.02963374 7.59036013 -0.03646383 10.19238281 -0.04199219 C12.00596111 -0.04774704 13.8195394 -0.05350473 15.63311768 -0.05926514 C19.43607872 -0.0697662 23.23901869 -0.0756145 27.04199219 -0.07910156 C31.90188059 -0.08457966 36.7614879 -0.10859684 41.6212883 -0.13707352 C45.36864013 -0.15574994 49.11592497 -0.16090819 52.8633194 -0.16243744 C54.65418278 -0.16545399 56.44504526 -0.17344863 58.23586273 -0.18662262 C60.74860148 -0.2037856 63.26066301 -0.20177797 65.7734375 -0.1953125 C66.50515167 -0.20452728 67.23686584 -0.21374207 67.99075317 -0.22323608 C73.58838838 -0.17839272 79.46387092 0.67889556 83.71412277 4.61310959 C87.98257433 9.63503631 88.50303698 12.90840405 88.41894531 19.33300781 C87.99539289 23.71374998 86.9023196 25.6974462 84.14550781 29.16113281 C78.74114237 32.92057125 74.8678696 33.74547674 68.36791992 33.67871094 C67.09337196 33.68922485 67.09337196 33.68922485 65.79307556 33.69995117 C63.00266206 33.71746291 60.2132742 33.70593397 57.42285156 33.69238281 C55.47424628 33.69507944 53.52564232 33.69896329 51.57704163 33.70397949 C47.50101866 33.70986508 43.42534722 33.70134091 39.34936523 33.68261719 C34.13160487 33.65981309 28.91466692 33.672966 23.69693661 33.69690704 C19.6759677 33.71137744 15.65519305 33.70675358 11.63421822 33.69639587 C9.71053532 33.69373281 7.78683464 33.69698352 5.86317253 33.70631409 C3.17287494 33.71650184 0.4839005 33.70094861 -2.20629883 33.67871094 C-2.99659485 33.68680786 -3.78689087 33.69490479 -4.60113525 33.70324707 C-10.96764868 33.6060199 -14.46952598 31.35272339 -19.16699219 27.03613281 C-21.62511721 22.84821611 -22.02812061 18.97743413 -21.85449219 14.16113281 C-20.2608647 8.18502972 -16.98920096 4.45176338 -11.85449219 1.16113281 C-7.99960679 -0.17564313 -4.02933803 0.00608835 0 0 Z " fill="#000000" transform="translate(267.8544921875,322.8388671875)"/>
<path d="M0 0 C0.92145813 -0.01283524 1.84291626 -0.02567047 2.79229736 -0.03889465 C4.29068146 -0.04997505 4.29068146 -0.04997505 5.81933594 -0.0612793 C6.84549011 -0.06935104 7.87164429 -0.07742279 8.92889404 -0.08573914 C11.10443427 -0.09958694 13.2799963 -0.11030597 15.45556641 -0.11816406 C18.77646335 -0.13535698 22.09635979 -0.17923526 25.41699219 -0.22338867 C27.53026611 -0.23351724 29.64354851 -0.24203283 31.75683594 -0.2487793 C32.74766174 -0.26628738 33.73848755 -0.28379547 34.75933838 -0.30183411 C40.55691164 -0.28367567 43.98363511 0.24246075 48.55371094 4.17700195 C52.18204757 7.99630367 52.86371552 11.05979201 53.05371094 16.17700195 C52.86371552 21.29421189 52.18204757 24.35770023 48.55371094 28.17700195 C43.16953712 32.78172024 38.65849896 32.76421113 31.89746094 32.70825195 C30.87696655 32.71207886 29.85647217 32.71590576 28.80505371 32.71984863 C26.65339162 32.7225634 24.50169629 32.71523279 22.35009766 32.69848633 C19.06435276 32.67707131 15.7807944 32.69830365 12.49511719 32.72387695 C10.4000603 32.7212336 8.30500476 32.71610847 6.20996094 32.70825195 C4.74254456 32.72039734 4.74254456 32.72039734 3.2454834 32.73278809 C-2.63701704 32.65226932 -5.93715144 32.03837838 -10.44628906 28.17700195 C-14.42825396 23.64580052 -14.73752107 19.51187868 -14.66113281 13.6809082 C-14.24463486 8.82681383 -12.43730155 6.0713303 -8.88378906 2.86450195 C-5.60524099 0.5947379 -3.93207964 0.04764606 0 0 Z " fill="#000000" transform="translate(170.4462890625,239.822998046875)"/>
</svg>
